<svg version="1.1" viewBox="0 0 40 40" xmlns="http://www.w3.org/2000/svg"><defs><linearGradient id="d" x1="17.068" x2="37.065" y1="2.928" y2="22.925" gradientUnits="userSpaceOnUse"><stop stop-color="#FB5502" offset=".15"/><stop stop-color="#F9A857" offset=".85"/></linearGradient><linearGradient id="c" x1="2.928" x2="22.925" y1="22.925" y2="2.928" gradientUnits="userSpaceOnUse"><stop stop-color="#D73BEA" offset=".15"/><stop stop-color="#FB5502" offset=".85"/></linearGradient><linearGradient id="b" x1="22.925" x2="2.928" y1="37.065" y2="17.068" gradientUnits="userSpaceOnUse"><stop stop-color="#05C1FD" offset=".15"/><stop stop-color="#D73BEA" offset=".85"/></linearGradient><linearGradient id="a" x1="37.065" x2="17.068" y1="17.068" y2="37.065" gradientUnits="userSpaceOnUse"><stop stop-color="#F9A857" offset=".15"/><stop stop-color="#05C1FD" offset=".85"/></linearGradient></defs><path d="m20 0l14.142 5.858 5.858 14.142h-20v-20z" fill="url(#d)"/><path d="m0 20l5.858-14.142 14.142-5.858v20h-20z" fill="url(#c)"/><path d="m20 40l-14.142-5.858-5.858-14.142h20v20z" fill="url(#b)"/><path d="m40 20l-5.858 14.142-14.142 5.858v-20h20z" fill="url(#a)"/><path d="m7.65 7.65h24.35v24.35h-24.35v-24.35z"/><path d="m9.178 27.77h9.85v1.704h-9.85zm-0.323-10.477l2.695-7.007h1.312l2.685 7.007h-1.717l-0.542-1.57h-2.182l-0.533 1.57zm3.346-5.3l-0.84 2.606h1.639zm8.912 3.88v1.42h-4.925v-7.007h4.837v1.42h-3.218v1.362h2.764v1.313h-2.764v1.5zm6.534 1.42v-4.193l-1.955 2.771-1.953-2.771v4.194h-1.62v-7.007h1.757l1.816 2.802 1.826-2.802h1.747v7.007z" fill="#fff"/></svg>
