<svg xmlns="http://www.w3.org/2000/svg" xmlns:xlink="http://www.w3.org/1999/xlink" width="40" height="40" viewBox="0 0 40 40">
  <defs>
    <polygon id="vagrant-a" points="0 .685 32 .685 32 33 0 33"/>
    <polygon id="vagrant-c" points="0 .996 17.987 .996 17.987 30.983 0 30.983"/>
    <polygon id="vagrant-e" points=".004 .685 31.978 .685 31.978 7.616 .004 7.616"/>
  </defs>
  <g fill="none" fill-rule="evenodd" transform="translate(4 3)">
    <g transform="translate(0 .315)">
      <mask id="vagrant-b" fill="#fff">
        <use xlink:href="#vagrant-a"/>
      </mask>
      <path fill="#3185B8" d="M31.9785,3.002 C31.7485,2.813 29.9345,1.84 29.9345,1.84 L27.9995,2.965 L27.9985,2.964 L29.9325,1.84 L27.9995,0.687 L27.9985,2.964 L25.9795,1.835 C25.9795,1.835 24.3295,2.799 23.5275,3.262 C22.5185,3.844 20.0435,5.318 20.0435,5.318 L20.0435,7.494 L18.0045,12.805 L18.0045,15.689 L16.5745,16.524 L16.0045,18.013 L11.9935,7.606 L11.9945,5.323 L3.9985,0.685 L0.0035,2.997 L-0.0005,2.996 L-0.0005,5.348 L2.4915,11.347 L4.0045,12.238 L4.0055,14.974 L10.0055,29.548 L16.0025,32.98 L16.0025,33 L21.9925,29.535 L31.9995,5.3 L31.9785,3.002" mask="url(#vagrant-b)"/>
    </g>
    <g transform="translate(0 2.315)">
      <mask id="vagrant-d" fill="#fff">
        <use xlink:href="#vagrant-c"/>
      </mask>
      <polygon fill="#3185B8" points="16.008 30.983 10.006 27.548 4.006 12.974 4.005 10.238 2.491 9.347 0 3.348 0 .996 1.971 2.145 1.971 4.46 4.008 5.642 4.008 3.313 7.988 5.616 8.18 7.896 13.966 22.915 17.987 25.256 17.987 29.85 16.002 28.682" mask="url(#vagrant-d)"/>
    </g>
    <path fill="#61A5CE" d="M1.9707,4.4599 L1.9707,6.7749 L4.0077,5.6279 L1.9707,4.4599 Z M11.9927,7.9209 L16.0047,18.3289 L15.9967,24.0619 L13.9627,25.2179 L8.1797,10.1939 L7.9887,7.9319 L11.9937,5.6379 L11.9927,7.9209 Z"/>
    <polygon fill="#EAE9E6" points="4.008 7.957 4.008 5.628 1.971 6.776"/>
    <polygon fill="#3185B8" points="15.997 24.062 18.002 25.209 20.235 19.603 21.955 20.626 21.955 15.253 22.504 13.955 23.968 14.813 23.968 12.541 21.975 11.383 23.978 10.22 22.008 9.084 22.003 6.775 20.044 5.633 20.044 7.809 18.005 13.12 18.005 16.004 16.574 16.839 16.005 18.329"/>
    <polyline fill="#61A5CE" points="15.969 26.409 17.988 27.572 17.977 32.167 21.992 29.85 32 5.616 31.979 3.318 25.98 6.776 25.98 11.388 23.968 12.542 23.968 14.813 22.504 13.955 21.955 15.253 21.955 20.615 19.169 22.254 18.002 25.21 15.97 26.409"/>
    <polygon fill="#EAE9E6" points="7.976 10.236 9.989 9.067 9.989 11.38"/>
    <polygon fill="#3185B8" points="9.988 11.38 11.983 12.507 11.983 10.236 9.988 9.067"/>
    <polygon fill="#61A5CE" points="5.993 15.973 5.993 18.303 8.009 17.143"/>
    <polygon fill="#EAE9E6" points="10.02 18.314 7.998 19.492 5.994 18.303 8.008 17.144"/>
    <polygon fill="#61A5CE" points="9.992 25.235 9.992 27.586 12.018 26.414"/>
    <polygon fill="#EAE9E6" points="13.97 29.839 16.011 31.025 16.018 28.638"/>
    <polygon fill="#61A5CE" points="16.003 33.315 16.011 31.025 17.977 32.167"/>
    <polygon fill="#EAE9E6" points="15.997 24.062 13.963 25.218 15.97 26.409 18.002 25.209"/>
    <polygon fill="#3185B8" points="25.98 11.388 25.98 6.775 23.994 5.644 23.994 7.943 22.008 9.084"/>
    <polygon fill="#EAE9E6" points="21.975 11.383 23.979 10.219 25.98 11.388 23.968 12.541"/>
    <polygon fill="#61A5CE" points="22.008 9.084 23.994 7.943 23.994 5.645 22.003 6.775"/>
    <polygon fill="#3185B8" points="27.998 3.28 27.999 1.003 29.933 2.155"/>
    <g transform="translate(0 .315)">
      <mask id="vagrant-f" fill="#fff">
        <use xlink:href="#vagrant-e"/>
      </mask>
      <path fill="#EAE9E6" d="M11.9932,5.3228 L7.9882,7.6158 L0.0042,2.9968 L3.9982,0.6848 L11.9932,5.3228 M31.9782,3.0018 L25.9792,6.4598 L23.9942,5.3288 L22.0032,6.4598 L20.0442,5.3178 C20.0442,5.3178 22.5182,3.8438 23.5272,3.2618 C24.3292,2.7998 25.9792,1.8348 25.9792,1.8348 L27.9992,2.9648 L29.9342,1.8408 C29.9342,1.8408 31.7482,2.8128 31.9782,3.0018 C31.4322,3.3208 31.9782,3.0018 31.9782,3.0018" mask="url(#vagrant-f)"/>
    </g>
    <path fill="#3185B8" d="M24.0488,17.1562 L25.9908,16.0422 L25.9908,18.2772 L24.0488,17.1562 Z M29.9648,6.7222 L29.9648,4.4782 L28.0128,5.6042 L29.9648,6.7222 Z"/>
    <polygon fill="#EAE9E6" points="19.99 26.393 19.99 28.708 22.013 27.539"/>
    <polygon fill="#3185B8" points="22.026 27.538 22.001 25.241 19.99 26.392"/>
  </g>
</svg>
